<?xml version="1.0" encoding="UTF-8" standalone="no"?>
<!DOCTYPE svg PUBLIC "-//W3C//DTD SVG 1.1//EN"
 "http://www.w3.org/Graphics/SVG/1.1/DTD/svg11.dtd">
<!-- Generated by graphviz version 2.44.0 (20200408.0750)
 -->
<!-- Pages: 1 -->
<svg width="1601pt" height="692pt"
 viewBox="0.00 0.00 1601.00 692.00" xmlns="http://www.w3.org/2000/svg" xmlns:xlink="http://www.w3.org/1999/xlink">
<g id="graph0" class="graph" transform="scale(1 1) rotate(0) translate(4 688)">
<polygon fill="white" stroke="transparent" points="-4,4 -4,-688 1597,-688 1597,4 -4,4"/>
<!-- [root] aws_dynamodb_table.dynamodb&#45;terraform&#45;state&#45;lock -->
<g id="node1" class="node">
<title>[root] aws_dynamodb_table.dynamodb&#45;terraform&#45;state&#45;lock</title>
<polygon fill="none" stroke="black" points="642,-468 332,-468 332,-432 642,-432 642,-468"/>
<text text-anchor="middle" x="487" y="-446.3" font-family="Times,serif" font-size="14.00">aws_dynamodb_table.dynamodb&#45;terraform&#45;state&#45;lock</text>
</g>
<!-- [root] provider.aws -->
<g id="node19" class="node">
<title>[root] provider.aws</title>
<polygon fill="none" stroke="black" points="322,-396 242.9,-378 322,-360 401.1,-378 322,-396"/>
<text text-anchor="middle" x="322" y="-374.3" font-family="Times,serif" font-size="14.00">provider.aws</text>
</g>
<!-- [root] aws_dynamodb_table.dynamodb&#45;terraform&#45;state&#45;lock&#45;&gt;[root] provider.aws -->
<g id="edge1" class="edge">
<title>[root] aws_dynamodb_table.dynamodb&#45;terraform&#45;state&#45;lock&#45;&gt;[root] provider.aws</title>
<path fill="none" stroke="black" d="M446.64,-431.88C419.56,-420.39 384.22,-405.4 358.08,-394.31"/>
<polygon fill="black" stroke="black" points="359.13,-390.95 348.56,-390.27 356.39,-397.39 359.13,-390.95"/>
</g>
<!-- [root] aws_s3_bucket.terraform&#45;remote&#45;state&#45;storage&#45;s3&#45;holly -->
<g id="node2" class="node">
<title>[root] aws_s3_bucket.terraform&#45;remote&#45;state&#45;storage&#45;s3&#45;holly</title>
<polygon fill="none" stroke="black" points="314,-468 0,-468 0,-432 314,-432 314,-468"/>
<text text-anchor="middle" x="157" y="-446.3" font-family="Times,serif" font-size="14.00">aws_s3_bucket.terraform&#45;remote&#45;state&#45;storage&#45;s3&#45;holly</text>
</g>
<!-- [root] aws_s3_bucket.terraform&#45;remote&#45;state&#45;storage&#45;s3&#45;holly&#45;&gt;[root] provider.aws -->
<g id="edge2" class="edge">
<title>[root] aws_s3_bucket.terraform&#45;remote&#45;state&#45;storage&#45;s3&#45;holly&#45;&gt;[root] provider.aws</title>
<path fill="none" stroke="black" d="M197.36,-431.88C224.44,-420.39 259.78,-405.4 285.92,-394.31"/>
<polygon fill="black" stroke="black" points="287.61,-397.39 295.44,-390.27 284.87,-390.95 287.61,-397.39"/>
</g>
<!-- [root] module.myApp.aws_api_gateway_deployment.example -->
<g id="node3" class="node">
<title>[root] module.myApp.aws_api_gateway_deployment.example</title>
<polygon fill="none" stroke="black" points="1222,-396 898,-396 898,-360 1222,-360 1222,-396"/>
<text text-anchor="middle" x="1060" y="-374.3" font-family="Times,serif" font-size="14.00">module.myApp.aws_api_gateway_deployment.example</text>
</g>
<!-- [root] module.myApp.aws_api_gateway_integration.lambda -->
<g id="node4" class="node">
<title>[root] module.myApp.aws_api_gateway_integration.lambda</title>
<polygon fill="none" stroke="black" points="1205,-324 893,-324 893,-288 1205,-288 1205,-324"/>
<text text-anchor="middle" x="1049" y="-302.3" font-family="Times,serif" font-size="14.00">module.myApp.aws_api_gateway_integration.lambda</text>
</g>
<!-- [root] module.myApp.aws_api_gateway_deployment.example&#45;&gt;[root] module.myApp.aws_api_gateway_integration.lambda -->
<g id="edge7" class="edge">
<title>[root] module.myApp.aws_api_gateway_deployment.example&#45;&gt;[root] module.myApp.aws_api_gateway_integration.lambda</title>
<path fill="none" stroke="black" d="M1057.28,-359.7C1056.07,-351.98 1054.61,-342.71 1053.26,-334.11"/>
<polygon fill="black" stroke="black" points="1056.7,-333.44 1051.69,-324.1 1049.78,-334.53 1056.7,-333.44"/>
</g>
<!-- [root] module.myApp.aws_api_gateway_integration.lambda_root -->
<g id="node5" class="node">
<title>[root] module.myApp.aws_api_gateway_integration.lambda_root</title>
<polygon fill="none" stroke="black" points="1564.5,-324 1223.5,-324 1223.5,-288 1564.5,-288 1564.5,-324"/>
<text text-anchor="middle" x="1394" y="-302.3" font-family="Times,serif" font-size="14.00">module.myApp.aws_api_gateway_integration.lambda_root</text>
</g>
<!-- [root] module.myApp.aws_api_gateway_deployment.example&#45;&gt;[root] module.myApp.aws_api_gateway_integration.lambda_root -->
<g id="edge8" class="edge">
<title>[root] module.myApp.aws_api_gateway_deployment.example&#45;&gt;[root] module.myApp.aws_api_gateway_integration.lambda_root</title>
<path fill="none" stroke="black" d="M1141.28,-359.97C1190.07,-349.74 1252.24,-336.71 1302.72,-326.13"/>
<polygon fill="black" stroke="black" points="1303.58,-329.53 1312.65,-324.05 1302.14,-322.68 1303.58,-329.53"/>
</g>
<!-- [root] module.myApp.aws_api_gateway_method.proxy -->
<g id="node6" class="node">
<title>[root] module.myApp.aws_api_gateway_method.proxy</title>
<polygon fill="none" stroke="black" points="1261,-252 975,-252 975,-216 1261,-216 1261,-252"/>
<text text-anchor="middle" x="1118" y="-230.3" font-family="Times,serif" font-size="14.00">module.myApp.aws_api_gateway_method.proxy</text>
</g>
<!-- [root] module.myApp.aws_api_gateway_integration.lambda&#45;&gt;[root] module.myApp.aws_api_gateway_method.proxy -->
<g id="edge9" class="edge">
<title>[root] module.myApp.aws_api_gateway_integration.lambda&#45;&gt;[root] module.myApp.aws_api_gateway_method.proxy</title>
<path fill="none" stroke="black" d="M1066.06,-287.7C1074.5,-279.14 1084.82,-268.66 1094.04,-259.3"/>
<polygon fill="black" stroke="black" points="1096.61,-261.68 1101.14,-252.1 1091.63,-256.77 1096.61,-261.68"/>
</g>
<!-- [root] module.myApp.aws_lambda_function.example -->
<g id="node11" class="node">
<title>[root] module.myApp.aws_lambda_function.example</title>
<polygon fill="none" stroke="black" points="956.5,-252 679.5,-252 679.5,-216 956.5,-216 956.5,-252"/>
<text text-anchor="middle" x="818" y="-230.3" font-family="Times,serif" font-size="14.00">module.myApp.aws_lambda_function.example</text>
</g>
<!-- [root] module.myApp.aws_api_gateway_integration.lambda&#45;&gt;[root] module.myApp.aws_lambda_function.example -->
<g id="edge10" class="edge">
<title>[root] module.myApp.aws_api_gateway_integration.lambda&#45;&gt;[root] module.myApp.aws_lambda_function.example</title>
<path fill="none" stroke="black" d="M992.79,-287.97C960.09,-278.06 918.7,-265.51 884.4,-255.12"/>
<polygon fill="black" stroke="black" points="885.05,-251.66 874.47,-252.11 883.02,-258.36 885.05,-251.66"/>
</g>
<!-- [root] module.myApp.aws_api_gateway_method.proxy_root -->
<g id="node7" class="node">
<title>[root] module.myApp.aws_api_gateway_method.proxy_root</title>
<polygon fill="none" stroke="black" points="1593,-252 1279,-252 1279,-216 1593,-216 1593,-252"/>
<text text-anchor="middle" x="1436" y="-230.3" font-family="Times,serif" font-size="14.00">module.myApp.aws_api_gateway_method.proxy_root</text>
</g>
<!-- [root] module.myApp.aws_api_gateway_integration.lambda_root&#45;&gt;[root] module.myApp.aws_api_gateway_method.proxy_root -->
<g id="edge11" class="edge">
<title>[root] module.myApp.aws_api_gateway_integration.lambda_root&#45;&gt;[root] module.myApp.aws_api_gateway_method.proxy_root</title>
<path fill="none" stroke="black" d="M1404.38,-287.7C1409.26,-279.56 1415.19,-269.69 1420.58,-260.7"/>
<polygon fill="black" stroke="black" points="1423.59,-262.48 1425.74,-252.1 1417.59,-258.88 1423.59,-262.48"/>
</g>
<!-- [root] module.myApp.aws_api_gateway_integration.lambda_root&#45;&gt;[root] module.myApp.aws_lambda_function.example -->
<g id="edge12" class="edge">
<title>[root] module.myApp.aws_api_gateway_integration.lambda_root&#45;&gt;[root] module.myApp.aws_lambda_function.example</title>
<path fill="none" stroke="black" d="M1253.83,-287.97C1166.94,-277.41 1055.41,-263.85 966.93,-253.1"/>
<polygon fill="black" stroke="black" points="967.15,-249.6 956.8,-251.87 966.31,-256.55 967.15,-249.6"/>
</g>
<!-- [root] module.myApp.aws_api_gateway_resource.proxy -->
<g id="node8" class="node">
<title>[root] module.myApp.aws_api_gateway_resource.proxy</title>
<polygon fill="none" stroke="black" points="1243,-180 953,-180 953,-144 1243,-144 1243,-180"/>
<text text-anchor="middle" x="1098" y="-158.3" font-family="Times,serif" font-size="14.00">module.myApp.aws_api_gateway_resource.proxy</text>
</g>
<!-- [root] module.myApp.aws_api_gateway_method.proxy&#45;&gt;[root] module.myApp.aws_api_gateway_resource.proxy -->
<g id="edge13" class="edge">
<title>[root] module.myApp.aws_api_gateway_method.proxy&#45;&gt;[root] module.myApp.aws_api_gateway_resource.proxy</title>
<path fill="none" stroke="black" d="M1113.06,-215.7C1110.83,-207.9 1108.15,-198.51 1105.67,-189.83"/>
<polygon fill="black" stroke="black" points="1109,-188.76 1102.89,-180.1 1102.27,-190.68 1109,-188.76"/>
</g>
<!-- [root] module.myApp.aws_api_gateway_rest_api.example -->
<g id="node9" class="node">
<title>[root] module.myApp.aws_api_gateway_rest_api.example</title>
<polygon fill="none" stroke="black" points="1209,-108 907,-108 907,-72 1209,-72 1209,-108"/>
<text text-anchor="middle" x="1058" y="-86.3" font-family="Times,serif" font-size="14.00">module.myApp.aws_api_gateway_rest_api.example</text>
</g>
<!-- [root] module.myApp.aws_api_gateway_method.proxy_root&#45;&gt;[root] module.myApp.aws_api_gateway_rest_api.example -->
<g id="edge14" class="edge">
<title>[root] module.myApp.aws_api_gateway_method.proxy_root&#45;&gt;[root] module.myApp.aws_api_gateway_rest_api.example</title>
<path fill="none" stroke="black" d="M1405.19,-215.92C1369.25,-196.52 1307.66,-164.86 1252,-144 1217.04,-130.9 1177.43,-119.49 1143.16,-110.65"/>
<polygon fill="black" stroke="black" points="1143.73,-107.19 1133.18,-108.11 1142,-113.97 1143.73,-107.19"/>
</g>
<!-- [root] module.myApp.aws_api_gateway_resource.proxy&#45;&gt;[root] module.myApp.aws_api_gateway_rest_api.example -->
<g id="edge15" class="edge">
<title>[root] module.myApp.aws_api_gateway_resource.proxy&#45;&gt;[root] module.myApp.aws_api_gateway_rest_api.example</title>
<path fill="none" stroke="black" d="M1088.11,-143.7C1083.51,-135.64 1077.94,-125.89 1072.85,-116.98"/>
<polygon fill="black" stroke="black" points="1075.77,-115.05 1067.77,-108.1 1069.7,-118.52 1075.77,-115.05"/>
</g>
<!-- [root] module.myApp.provider.aws -->
<g id="node14" class="node">
<title>[root] module.myApp.provider.aws</title>
<polygon fill="none" stroke="black" points="826,-36 664.46,-18 826,0 987.54,-18 826,-36"/>
<text text-anchor="middle" x="826" y="-14.3" font-family="Times,serif" font-size="14.00">module.myApp.provider.aws</text>
</g>
<!-- [root] module.myApp.aws_api_gateway_rest_api.example&#45;&gt;[root] module.myApp.provider.aws -->
<g id="edge16" class="edge">
<title>[root] module.myApp.aws_api_gateway_rest_api.example&#45;&gt;[root] module.myApp.provider.aws</title>
<path fill="none" stroke="black" d="M1001.54,-71.97C963.66,-60.54 914.15,-45.6 877.37,-34.5"/>
<polygon fill="black" stroke="black" points="877.94,-31.02 867.36,-31.48 875.92,-37.72 877.94,-31.02"/>
</g>
<!-- [root] module.myApp.aws_iam_role.lambda_exec -->
<g id="node10" class="node">
<title>[root] module.myApp.aws_iam_role.lambda_exec</title>
<polygon fill="none" stroke="black" points="745.5,-108 486.5,-108 486.5,-72 745.5,-72 745.5,-108"/>
<text text-anchor="middle" x="616" y="-86.3" font-family="Times,serif" font-size="14.00">module.myApp.aws_iam_role.lambda_exec</text>
</g>
<!-- [root] module.myApp.aws_iam_role.lambda_exec&#45;&gt;[root] module.myApp.provider.aws -->
<g id="edge17" class="edge">
<title>[root] module.myApp.aws_iam_role.lambda_exec&#45;&gt;[root] module.myApp.provider.aws</title>
<path fill="none" stroke="black" d="M667.1,-71.97C700.77,-60.74 744.58,-46.14 777.67,-35.11"/>
<polygon fill="black" stroke="black" points="779.19,-38.29 787.57,-31.81 776.98,-31.65 779.19,-38.29"/>
</g>
<!-- [root] module.myApp.aws_lambda_function.example&#45;&gt;[root] module.myApp.aws_iam_role.lambda_exec -->
<g id="edge18" class="edge">
<title>[root] module.myApp.aws_lambda_function.example&#45;&gt;[root] module.myApp.aws_iam_role.lambda_exec</title>
<path fill="none" stroke="black" d="M777.9,-215.93C757.69,-206.56 733.24,-193.99 713,-180 685.45,-160.95 657.66,-134.55 638.92,-115.45"/>
<polygon fill="black" stroke="black" points="641.44,-113.01 631.97,-108.27 636.41,-117.88 641.44,-113.01"/>
</g>
<!-- [root] module.myApp.var.app_version -->
<g id="node15" class="node">
<title>[root] module.myApp.var.app_version</title>
<polygon fill="none" stroke="black" points="908.5,-180 721.5,-180 721.5,-144 914.5,-144 914.5,-174 908.5,-180"/>
<polyline fill="none" stroke="black" points="908.5,-180 908.5,-174 "/>
<polyline fill="none" stroke="black" points="914.5,-174 908.5,-174 "/>
<text text-anchor="middle" x="818" y="-158.3" font-family="Times,serif" font-size="14.00">module.myApp.var.app_version</text>
</g>
<!-- [root] module.myApp.aws_lambda_function.example&#45;&gt;[root] module.myApp.var.app_version -->
<g id="edge19" class="edge">
<title>[root] module.myApp.aws_lambda_function.example&#45;&gt;[root] module.myApp.var.app_version</title>
<path fill="none" stroke="black" d="M818,-215.7C818,-207.98 818,-198.71 818,-190.11"/>
<polygon fill="black" stroke="black" points="821.5,-190.1 818,-180.1 814.5,-190.1 821.5,-190.1"/>
</g>
<!-- [root] module.myApp.aws_lambda_permission.apigw -->
<g id="node12" class="node">
<title>[root] module.myApp.aws_lambda_permission.apigw</title>
<polygon fill="none" stroke="black" points="853,-324 575,-324 575,-288 853,-288 853,-324"/>
<text text-anchor="middle" x="714" y="-302.3" font-family="Times,serif" font-size="14.00">module.myApp.aws_lambda_permission.apigw</text>
</g>
<!-- [root] module.myApp.aws_lambda_permission.apigw&#45;&gt;[root] module.myApp.aws_api_gateway_rest_api.example -->
<g id="edge20" class="edge">
<title>[root] module.myApp.aws_lambda_permission.apigw&#45;&gt;[root] module.myApp.aws_api_gateway_rest_api.example</title>
<path fill="none" stroke="black" d="M694.96,-287.84C685.82,-278.3 675.83,-265.62 671,-252 653.79,-203.46 670.42,-172.98 713,-144 729.04,-133.09 815.34,-119.83 897.61,-109.31"/>
<polygon fill="black" stroke="black" points="898.14,-112.77 907.62,-108.04 897.26,-105.82 898.14,-112.77"/>
</g>
<!-- [root] module.myApp.aws_lambda_permission.apigw&#45;&gt;[root] module.myApp.aws_lambda_function.example -->
<g id="edge21" class="edge">
<title>[root] module.myApp.aws_lambda_permission.apigw&#45;&gt;[root] module.myApp.aws_lambda_function.example</title>
<path fill="none" stroke="black" d="M739.44,-287.88C752.79,-278.89 769.32,-267.76 783.78,-258.03"/>
<polygon fill="black" stroke="black" points="786.12,-260.68 792.46,-252.19 782.21,-254.87 786.12,-260.68"/>
</g>
<!-- [root] module.myApp.output.base_url -->
<g id="node13" class="node">
<title>[root] module.myApp.output.base_url</title>
<polygon fill="none" stroke="black" points="883.5,-468 698.5,-468 698.5,-432 889.5,-432 889.5,-462 883.5,-468"/>
<polyline fill="none" stroke="black" points="883.5,-468 883.5,-462 "/>
<polyline fill="none" stroke="black" points="889.5,-462 883.5,-462 "/>
<text text-anchor="middle" x="794" y="-446.3" font-family="Times,serif" font-size="14.00">module.myApp.output.base_url</text>
</g>
<!-- [root] module.myApp.output.base_url&#45;&gt;[root] module.myApp.aws_api_gateway_deployment.example -->
<g id="edge22" class="edge">
<title>[root] module.myApp.output.base_url&#45;&gt;[root] module.myApp.aws_api_gateway_deployment.example</title>
<path fill="none" stroke="black" d="M858.73,-431.97C896.87,-421.93 945.28,-409.19 985.06,-398.72"/>
<polygon fill="black" stroke="black" points="986.2,-402.04 994.98,-396.11 984.42,-395.27 986.2,-402.04"/>
</g>
<!-- [root] var.app_version -->
<g id="node20" class="node">
<title>[root] var.app_version</title>
<polygon fill="none" stroke="black" points="863.5,-108 766.5,-108 766.5,-72 869.5,-72 869.5,-102 863.5,-108"/>
<polyline fill="none" stroke="black" points="863.5,-108 863.5,-102 "/>
<polyline fill="none" stroke="black" points="869.5,-102 863.5,-102 "/>
<text text-anchor="middle" x="818" y="-86.3" font-family="Times,serif" font-size="14.00">var.app_version</text>
</g>
<!-- [root] module.myApp.var.app_version&#45;&gt;[root] var.app_version -->
<g id="edge25" class="edge">
<title>[root] module.myApp.var.app_version&#45;&gt;[root] var.app_version</title>
<path fill="none" stroke="black" d="M818,-143.7C818,-135.98 818,-126.71 818,-118.11"/>
<polygon fill="black" stroke="black" points="821.5,-118.1 818,-108.1 814.5,-118.1 821.5,-118.1"/>
</g>
<!-- [root] output.base_url -->
<g id="node16" class="node">
<title>[root] output.base_url</title>
<polygon fill="none" stroke="black" points="815.5,-540 720.5,-540 720.5,-504 821.5,-504 821.5,-534 815.5,-540"/>
<polyline fill="none" stroke="black" points="815.5,-540 815.5,-534 "/>
<polyline fill="none" stroke="black" points="821.5,-534 815.5,-534 "/>
<text text-anchor="middle" x="771" y="-518.3" font-family="Times,serif" font-size="14.00">output.base_url</text>
</g>
<!-- [root] output.base_url&#45;&gt;[root] module.myApp.output.base_url -->
<g id="edge26" class="edge">
<title>[root] output.base_url&#45;&gt;[root] module.myApp.output.base_url</title>
<path fill="none" stroke="black" d="M776.69,-503.7C779.25,-495.9 782.33,-486.51 785.18,-477.83"/>
<polygon fill="black" stroke="black" points="788.58,-478.7 788.38,-468.1 781.93,-476.51 788.58,-478.7"/>
</g>
<!-- [root] output.dynamodb_table_name -->
<g id="node17" class="node">
<title>[root] output.dynamodb_table_name</title>
<polygon fill="none" stroke="black" points="636,-540 460,-540 460,-504 642,-504 642,-534 636,-540"/>
<polyline fill="none" stroke="black" points="636,-540 636,-534 "/>
<polyline fill="none" stroke="black" points="642,-534 636,-534 "/>
<text text-anchor="middle" x="551" y="-518.3" font-family="Times,serif" font-size="14.00">output.dynamodb_table_name</text>
</g>
<!-- [root] output.dynamodb_table_name&#45;&gt;[root] aws_dynamodb_table.dynamodb&#45;terraform&#45;state&#45;lock -->
<g id="edge27" class="edge">
<title>[root] output.dynamodb_table_name&#45;&gt;[root] aws_dynamodb_table.dynamodb&#45;terraform&#45;state&#45;lock</title>
<path fill="none" stroke="black" d="M535.18,-503.7C527.43,-495.22 517.96,-484.86 509.48,-475.58"/>
<polygon fill="black" stroke="black" points="511.97,-473.12 502.64,-468.1 506.8,-477.85 511.97,-473.12"/>
</g>
<!-- [root] output.s3_bucket_arn -->
<g id="node18" class="node">
<title>[root] output.s3_bucket_arn</title>
<polygon fill="none" stroke="black" points="436,-540 308,-540 308,-504 442,-504 442,-534 436,-540"/>
<polyline fill="none" stroke="black" points="436,-540 436,-534 "/>
<polyline fill="none" stroke="black" points="442,-534 436,-534 "/>
<text text-anchor="middle" x="375" y="-518.3" font-family="Times,serif" font-size="14.00">output.s3_bucket_arn</text>
</g>
<!-- [root] output.s3_bucket_arn&#45;&gt;[root] aws_s3_bucket.terraform&#45;remote&#45;state&#45;storage&#45;s3&#45;holly -->
<g id="edge28" class="edge">
<title>[root] output.s3_bucket_arn&#45;&gt;[root] aws_s3_bucket.terraform&#45;remote&#45;state&#45;storage&#45;s3&#45;holly</title>
<path fill="none" stroke="black" d="M321.95,-503.97C291.23,-494.1 252.36,-481.62 220.08,-471.25"/>
<polygon fill="black" stroke="black" points="220.88,-467.84 210.29,-468.11 218.74,-474.5 220.88,-467.84"/>
</g>
<!-- [root] meta.count&#45;boundary (EachMode fixup) -->
<g id="node21" class="node">
<title>[root] meta.count&#45;boundary (EachMode fixup)</title>
<ellipse fill="none" stroke="black" cx="610" cy="-594" rx="176.27" ry="18"/>
<text text-anchor="middle" x="610" y="-590.3" font-family="Times,serif" font-size="14.00">[root] meta.count&#45;boundary (EachMode fixup)</text>
</g>
<!-- [root] meta.count&#45;boundary (EachMode fixup)&#45;&gt;[root] module.myApp.aws_lambda_permission.apigw -->
<g id="edge3" class="edge">
<title>[root] meta.count&#45;boundary (EachMode fixup)&#45;&gt;[root] module.myApp.aws_lambda_permission.apigw</title>
<path fill="none" stroke="black" d="M625.93,-576.03C634.44,-566.17 644.48,-553.13 651,-540 685.63,-470.32 703.17,-379.14 710.19,-334.3"/>
<polygon fill="black" stroke="black" points="713.68,-334.61 711.72,-324.2 706.76,-333.56 713.68,-334.61"/>
</g>
<!-- [root] meta.count&#45;boundary (EachMode fixup)&#45;&gt;[root] output.base_url -->
<g id="edge4" class="edge">
<title>[root] meta.count&#45;boundary (EachMode fixup)&#45;&gt;[root] output.base_url</title>
<path fill="none" stroke="black" d="M648.15,-576.41C670.4,-566.74 698.68,-554.44 722.5,-544.09"/>
<polygon fill="black" stroke="black" points="723.94,-547.28 731.72,-540.08 721.15,-540.86 723.94,-547.28"/>
</g>
<!-- [root] meta.count&#45;boundary (EachMode fixup)&#45;&gt;[root] output.dynamodb_table_name -->
<g id="edge5" class="edge">
<title>[root] meta.count&#45;boundary (EachMode fixup)&#45;&gt;[root] output.dynamodb_table_name</title>
<path fill="none" stroke="black" d="M595.72,-576.05C588.65,-567.67 579.97,-557.38 572.15,-548.1"/>
<polygon fill="black" stroke="black" points="574.68,-545.67 565.56,-540.28 569.33,-550.18 574.68,-545.67"/>
</g>
<!-- [root] meta.count&#45;boundary (EachMode fixup)&#45;&gt;[root] output.s3_bucket_arn -->
<g id="edge6" class="edge">
<title>[root] meta.count&#45;boundary (EachMode fixup)&#45;&gt;[root] output.s3_bucket_arn</title>
<path fill="none" stroke="black" d="M555.79,-576.85C521.97,-566.78 478.17,-553.73 442.15,-543"/>
<polygon fill="black" stroke="black" points="442.8,-539.54 432.21,-540.04 440.8,-546.25 442.8,-539.54"/>
</g>
<!-- [root] module.myApp.provider.aws (close) -->
<g id="node22" class="node">
<title>[root] module.myApp.provider.aws (close)</title>
<ellipse fill="none" stroke="black" cx="1071" cy="-450" rx="163.27" ry="18"/>
<text text-anchor="middle" x="1071" y="-446.3" font-family="Times,serif" font-size="14.00">[root] module.myApp.provider.aws (close)</text>
</g>
<!-- [root] module.myApp.provider.aws (close)&#45;&gt;[root] module.myApp.aws_api_gateway_deployment.example -->
<g id="edge23" class="edge">
<title>[root] module.myApp.provider.aws (close)&#45;&gt;[root] module.myApp.aws_api_gateway_deployment.example</title>
<path fill="none" stroke="black" d="M1068.28,-431.7C1067.07,-423.98 1065.61,-414.71 1064.26,-406.11"/>
<polygon fill="black" stroke="black" points="1067.7,-405.44 1062.69,-396.1 1060.78,-406.53 1067.7,-405.44"/>
</g>
<!-- [root] module.myApp.provider.aws (close)&#45;&gt;[root] module.myApp.aws_lambda_permission.apigw -->
<g id="edge24" class="edge">
<title>[root] module.myApp.provider.aws (close)&#45;&gt;[root] module.myApp.aws_lambda_permission.apigw</title>
<path fill="none" stroke="black" d="M1006.42,-433.35C971.18,-424.03 927.1,-411.08 889,-396 840.27,-376.71 786.95,-348.49 752.13,-329.02"/>
<polygon fill="black" stroke="black" points="753.68,-325.88 743.25,-324.02 750.25,-331.98 753.68,-325.88"/>
</g>
<!-- [root] provider.aws (close) -->
<g id="node23" class="node">
<title>[root] provider.aws (close)</title>
<ellipse fill="none" stroke="black" cx="185" cy="-522" rx="104.78" ry="18"/>
<text text-anchor="middle" x="185" y="-518.3" font-family="Times,serif" font-size="14.00">[root] provider.aws (close)</text>
</g>
<!-- [root] provider.aws (close)&#45;&gt;[root] aws_dynamodb_table.dynamodb&#45;terraform&#45;state&#45;lock -->
<g id="edge29" class="edge">
<title>[root] provider.aws (close)&#45;&gt;[root] aws_dynamodb_table.dynamodb&#45;terraform&#45;state&#45;lock</title>
<path fill="none" stroke="black" d="M244.67,-507.17C290.11,-496.64 353.24,-482 403.67,-470.32"/>
<polygon fill="black" stroke="black" points="404.62,-473.69 413.57,-468.02 403.04,-466.87 404.62,-473.69"/>
</g>
<!-- [root] provider.aws (close)&#45;&gt;[root] aws_s3_bucket.terraform&#45;remote&#45;state&#45;storage&#45;s3&#45;holly -->
<g id="edge30" class="edge">
<title>[root] provider.aws (close)&#45;&gt;[root] aws_s3_bucket.terraform&#45;remote&#45;state&#45;storage&#45;s3&#45;holly</title>
<path fill="none" stroke="black" d="M178.08,-503.7C174.93,-495.81 171.12,-486.3 167.62,-477.55"/>
<polygon fill="black" stroke="black" points="170.81,-476.09 163.84,-468.1 164.31,-478.69 170.81,-476.09"/>
</g>
<!-- [root] root -->
<g id="node24" class="node">
<title>[root] root</title>
<ellipse fill="none" stroke="black" cx="610" cy="-666" rx="47.39" ry="18"/>
<text text-anchor="middle" x="610" y="-662.3" font-family="Times,serif" font-size="14.00">[root] root</text>
</g>
<!-- [root] root&#45;&gt;[root] meta.count&#45;boundary (EachMode fixup) -->
<g id="edge31" class="edge">
<title>[root] root&#45;&gt;[root] meta.count&#45;boundary (EachMode fixup)</title>
<path fill="none" stroke="black" d="M610,-647.7C610,-639.98 610,-630.71 610,-622.11"/>
<polygon fill="black" stroke="black" points="613.5,-622.1 610,-612.1 606.5,-622.1 613.5,-622.1"/>
</g>
<!-- [root] root&#45;&gt;[root] module.myApp.provider.aws (close) -->
<g id="edge32" class="edge">
<title>[root] root&#45;&gt;[root] module.myApp.provider.aws (close)</title>
<path fill="none" stroke="black" d="M650.32,-656.51C688.48,-647.77 746.91,-632.53 795,-612 887.89,-572.34 988.25,-507.66 1038.48,-473.6"/>
<polygon fill="black" stroke="black" points="1040.68,-476.34 1046.97,-467.81 1036.74,-470.56 1040.68,-476.34"/>
</g>
<!-- [root] root&#45;&gt;[root] provider.aws (close) -->
<g id="edge33" class="edge">
<title>[root] root&#45;&gt;[root] provider.aws (close)</title>
<path fill="none" stroke="black" d="M572.19,-655.07C534.62,-645 475.47,-628.56 425,-612 358.24,-590.09 282.4,-561.3 234.16,-542.48"/>
<polygon fill="black" stroke="black" points="235.18,-539.12 224.59,-538.74 232.63,-545.64 235.18,-539.12"/>
</g>
</g>
</svg>
